<svg width="212" height="126" viewBox="0 0 212 126" fill="none" xmlns="http://www.w3.org/2000/svg">
<g id="freepik--Text--inject-44">
<path id="Vector" d="M28.528 62.116H53.9302L51.6928 73.6411H5.93472L7.74656 64.4776L35.289 42.6451C42.0986 37.1347 44.1779 33.9121 44.1779 29.89C44.1779 25.8679 41.1501 23.1619 35.289 23.1619C32.8151 23.1995 30.3803 23.7915 28.1599 24.8954C25.9394 25.9992 23.9887 27.5874 22.448 29.5456L13.0362 22.6453C17.9002 15.9172 26.935 11.4646 37.3562 11.4646C50.1363 11.4646 58.5024 18.3649 58.5024 27.8851C58.5024 35.1298 55.2314 41.2429 44.6035 49.5454L28.528 62.116Z" fill="#263238"/>
<path id="Vector_2" d="M114.451 60.8122H104.528L102.023 73.6411H88.3795L90.9696 60.8122H58.4173L60.2291 51.292L95.8093 12.5101H111.082L77.9341 49.2748H93.8151L96.0647 37.8358H109.1L106.851 49.2748H116.785L114.451 60.8122Z" fill="#263238"/>
<path id="Vector_3" d="M154.335 0.111691H166.945L122.573 82.3741H110L154.335 0.111691Z" fill="#263238"/>
<path id="Vector_4" d="M211.925 12.5101L210.113 21.6859L177.828 73.6411H162.288L193.272 24.0352H173.682L171.688 33.9982H159.26L163.504 12.5101H211.925Z" fill="#263238"/>
<path id="Vector_5" d="M0.280327 121.869L3.81889 115.08C6.97265 117.118 10.6314 118.214 14.3738 118.241C17.8272 118.241 19.8214 117.146 19.8214 115.4C19.8214 111.082 4.40257 113.469 4.40257 103.383C4.40257 96.4576 10.2515 91.9189 19.639 91.9189C23.6205 91.7852 27.5643 92.7368 31.0573 94.6741L27.7984 101.414C25.1815 99.7852 22.1646 98.9328 19.0918 98.9545C15.3709 98.9545 13.3766 100.332 13.3766 102.079C13.3766 106.482 28.7955 103.961 28.7955 113.862C28.7955 120.738 22.8128 125.276 13.5226 125.276C8.07489 125.301 3.13793 123.837 0.280327 121.869Z" fill="#263238"/>
<path id="Vector_6" d="M44.7859 99.5818L43.7523 104.994H57.8458L56.496 111.771H42.3904L41.2473 117.651H57.8944L56.4352 124.661H30.96L37.3562 92.62H62.199L60.7885 99.6433L44.7859 99.5818Z" fill="#263238"/>
<path id="Vector_7" d="M85.3517 115.031L90.7507 124.661H81.3632L76.6451 116.138H72.1216L70.4435 124.661H61.4694L67.8048 92.62H81.3632C89.4739 92.62 94.1434 96.433 94.1434 102.854C94.207 105.579 93.38 108.25 91.7905 110.451C90.2009 112.653 87.9377 114.263 85.3517 115.031ZM80.0986 99.7171H75.3805L73.52 109.114H78.8704C82.8224 109.114 85.1328 107.195 85.1328 103.665C85.0842 100.959 83.175 99.7171 80.0986 99.7171Z" fill="#263238"/>
<path id="Vector_8" d="M133.481 92.62L113.648 124.661H104.808L97.536 92.62H106.741L111.277 113.53L124.239 92.62H133.481Z" fill="#263238"/>
<path id="Vector_9" d="M135.378 92.62H144.364L137.968 124.661H128.994L135.378 92.62Z" fill="#263238"/>
<path id="Vector_10" d="M145.763 111.181C145.763 100.037 153.873 91.9189 165.656 91.9189C171.505 91.9189 176.272 94.0837 178.534 97.9705L172.016 103.198C171.288 102.005 170.255 101.033 169.027 100.383C167.799 99.7341 166.42 99.4316 165.036 99.508C158.871 99.508 154.785 104.317 154.785 110.639C154.785 114.957 157.692 117.847 162.543 117.847C164.025 117.854 165.489 117.527 166.829 116.888C168.169 116.25 169.351 115.317 170.289 114.157L175.591 119.422C172.016 123.788 167.347 125.387 161.68 125.387C151.976 125.301 145.763 119.569 145.763 111.181Z" fill="#263238"/>
<path id="Vector_11" d="M191.63 99.5818L190.584 104.994H204.678L203.364 111.771H189.222L188.092 117.651H204.726L203.279 124.661H177.853L184.176 92.62H209.019L207.62 99.6433L191.63 99.5818Z" fill="#263238"/>
</g>
</svg>
