<svg width="104" height="106" viewBox="0 0 104 106" fill="none" xmlns="http://www.w3.org/2000/svg">
<g id="freepik--speech-bubble--inject-44">
<path id="Vector" d="M4.62433 95.8422L19.873 93.3822C29.8674 101.539 42.5169 105.619 55.3346 104.821C68.1523 104.022 80.2111 98.4023 89.1403 89.0664C98.0695 79.7304 103.223 67.3536 103.588 54.369C103.953 41.3844 99.5033 28.7312 91.113 18.8971C82.7227 9.06301 70.9992 2.75927 58.247 1.22513C45.4949 -0.309005 32.6366 3.03745 22.2001 10.6066C11.7635 18.1758 4.50363 29.4201 1.84759 42.1291C-0.80846 54.8381 1.3315 68.0924 7.84676 79.2864L4.62433 95.8422Z" fill="white"/>
<path id="Vector_2" d="M4.62427 95.8422C4.62427 95.8422 4.62429 95.4978 4.79453 94.7967L5.37822 91.6479C5.9011 88.8189 6.67933 84.6738 7.68861 79.2618C7.69127 79.2441 7.69767 79.2273 7.70743 79.2124C7.71718 79.1975 7.73005 79.1849 7.74509 79.1755C7.76014 79.1662 7.77702 79.1602 7.79456 79.1581C7.8121 79.156 7.82991 79.1578 7.8467 79.1634C7.85779 79.1569 7.87037 79.1535 7.88318 79.1535C7.89598 79.1535 7.90856 79.1569 7.91966 79.1634L7.70075 79.3356C3.34947 71.9055 0.888567 63.4995 0.538527 54.8709C0.430601 52.1856 0.532249 49.4958 0.842527 46.8267C1.20405 43.9695 1.78129 41.1446 2.56923 38.3766C5.44131 28.3417 11.226 19.4102 19.1741 12.739C27.1223 6.06786 36.8675 1.96436 47.1478 0.960003C55.2138 0.190041 63.3457 1.35598 70.8824 4.36307C78.4192 7.37016 85.1482 12.1336 90.5225 18.2661L92.5897 20.7261C93.2342 21.5871 93.8057 22.485 94.438 23.346C95.6387 25.0964 96.7311 26.9203 97.7091 28.8072C98.2441 29.7174 98.5846 30.726 99.0345 31.6731C99.4844 32.6202 99.9465 33.5673 100.251 34.5759C100.971 36.5281 101.568 38.5248 102.038 40.5537C103.909 48.4381 103.971 56.6508 102.22 64.5633C99.8754 74.8523 94.4993 84.1795 86.8027 91.3125C79.106 98.4455 69.451 103.049 59.1132 104.514C56.2726 104.904 53.4066 105.072 50.5404 105.018C47.8791 104.89 45.2276 104.603 42.6 104.157C34.2338 102.581 26.391 98.9106 19.7878 93.4806H19.8972L8.49118 95.2149L5.58492 95.6454L4.62427 95.7807L5.63357 95.5962L8.56413 95.1042L19.8486 93.21H19.958C26.5543 98.5507 34.3602 102.148 42.6729 103.677C45.2801 104.117 47.9117 104.392 50.5526 104.501C53.3992 104.548 56.2451 104.371 59.0646 103.973C69.2781 102.478 78.8067 97.8963 86.4014 90.8288C93.9961 83.7612 99.3023 74.5374 101.625 64.3665C103.342 56.5448 103.272 48.4296 101.418 40.6398C100.942 38.6395 100.353 36.6683 99.6547 34.7358C99.3507 33.7395 98.84 32.8293 98.4387 31.8699C98.0374 30.9105 97.6483 29.9388 97.1254 29.0409C96.1624 27.1769 95.082 25.3774 93.8908 23.6535C93.2828 22.7925 92.6748 21.9069 92.0668 21.0582L90.024 18.5982C84.7149 12.5403 78.07 7.83231 70.6273 4.85558C63.1846 1.87885 55.1535 0.717066 47.1843 1.46431C40.1294 2.16943 33.2957 4.3469 27.1151 7.85919C20.9344 11.3715 15.5411 16.1422 11.2758 21.87C7.5591 26.8808 4.78133 32.5378 3.07996 38.5611C2.29425 41.3012 1.713 44.097 1.34109 46.9251C1.01905 49.5727 0.905203 52.242 1.00061 54.9078C1.2979 63.4763 3.68298 71.8378 7.94396 79.2495C7.96704 79.2745 7.97988 79.3075 7.97988 79.3418C7.97988 79.376 7.96704 79.409 7.94396 79.434C7.92 79.454 7.8899 79.4649 7.85883 79.4649C7.82777 79.4649 7.79767 79.454 7.7737 79.434L7.99261 79.3602C6.92253 84.7107 6.09565 88.8189 5.56061 91.6602C5.28093 93.0501 5.06205 94.1202 4.91613 94.8336C4.77021 95.547 4.62427 95.8422 4.62427 95.8422Z" fill="#263238"/>
<path id="Vector_3" d="M67.7226 54.4404C67.7202 53.3957 68.0244 52.3738 68.5967 51.5042C69.169 50.6346 69.9836 49.9563 70.9373 49.5554C71.891 49.1545 72.9409 49.049 73.954 49.2522C74.967 49.4554 75.8977 49.9582 76.628 50.6969C77.3583 51.4356 77.8553 52.377 78.0562 53.4017C78.2571 54.4264 78.1528 55.4884 77.7565 56.4531C77.3601 57.4178 76.6896 58.2417 75.8299 58.8206C74.9701 59.3995 73.9599 59.7072 72.9271 59.7048C71.5478 59.7015 70.2258 59.1458 69.2505 58.1593C68.2752 57.1727 67.7258 55.8356 67.7226 54.4404Z" fill="#263238"/>
<path id="Vector_4" d="M46.856 54.4404C46.8536 53.3962 47.1575 52.3748 47.7293 51.5055C48.301 50.6361 49.1149 49.9579 50.0679 49.5566C51.0209 49.1553 52.0702 49.0491 53.0829 49.2513C54.0956 49.4535 55.0263 49.9551 55.7571 50.6925C56.4879 51.43 56.9859 52.3702 57.1882 53.3941C57.3904 54.418 57.2878 55.4796 56.8934 56.4445C56.4989 57.4094 55.8303 58.2343 54.9721 58.8146C54.114 59.395 53.105 59.7048 52.0727 59.7048C50.6912 59.7048 49.3662 59.1505 48.3882 58.1636C47.4103 57.1767 46.8593 55.8377 46.856 54.4404Z" fill="#263238"/>
<path id="Vector_5" d="M26.0503 57.0726C25.5344 56.1688 25.2949 55.1305 25.3623 54.0891C25.4298 53.0477 25.801 52.0499 26.429 51.2218C27.0571 50.3938 27.9138 49.7728 28.8908 49.4373C29.8678 49.1018 30.9212 49.0669 31.9179 49.3369C32.9145 49.607 33.8095 50.17 34.4898 50.9546C35.1702 51.7393 35.6052 52.7104 35.7398 53.7451C35.8745 54.7798 35.7028 55.8317 35.2465 56.7678C34.7901 57.7038 34.0696 58.4819 33.1761 59.0037C31.9772 59.7 30.5545 59.8878 29.2191 59.5259C27.8838 59.164 26.7444 58.2819 26.0503 57.0726Z" fill="#263238"/>
</g>
</svg>
