<svg width="181" height="129" viewBox="0 0 181 129" fill="none" xmlns="http://www.w3.org/2000/svg">
<g id="freepik--Stopwatch--inject-44">
<path id="Vector" d="M17.7904 128.417H0.073288C0.073288 103.472 10.0566 77.9868 27.4576 58.4298C45.7706 37.8765 69.5434 26.5605 94.3376 26.5605C145.008 26.5605 180.406 63.9771 180.406 117.581H162.725C162.725 73.8786 135.256 44.5185 94.3741 44.5185C54.2947 44.4816 17.7904 84.4812 17.7904 128.417Z" fill="#5ED8FF"/>
<path id="Vector_2" d="M27.5062 123.435C30.3395 123.435 32.6378 123.718 32.6256 123.977C32.6134 124.235 30.3274 124.432 27.5062 124.432C24.6851 124.432 22.3747 124.198 22.3747 123.89C22.3747 123.583 24.6851 123.386 27.5062 123.435Z" fill="#263238"/>
<path id="Vector_3" d="M39.7392 84.1491C42.1712 85.7235 43.8128 87.3348 43.5453 87.7653C43.2778 88.1958 41.1133 87.3225 38.6813 85.8342C36.2493 84.3459 34.632 82.71 34.8874 82.218C35.1427 81.726 37.368 82.587 39.7392 84.1491Z" fill="#263238"/>
<path id="Vector_4" d="M70.3824 57.0768C71.5376 59.6967 72.1091 61.9968 71.5984 62.1936C71.0877 62.3904 69.7865 60.4839 68.5462 57.9132C67.3059 55.3425 66.7344 52.9932 67.3302 52.7964C67.9261 52.5996 69.2393 54.42 70.3824 57.0768Z" fill="#263238"/>
<path id="Vector_5" d="M110.754 53.8542C110.048 56.634 109.088 58.7742 108.613 58.6758C108.139 58.5774 108.236 56.2158 108.844 53.3991C109.452 50.5824 110.401 48.4791 110.985 48.5898C111.568 48.7005 111.459 51.0867 110.754 53.8542Z" fill="#263238"/>
<path id="Vector_6" d="M143.732 77.298C141.372 78.8724 139.244 79.8318 138.965 79.4382C138.685 79.0446 140.327 77.3472 142.613 75.6621C144.899 73.977 147.039 73.0299 147.38 73.5219C147.72 74.0139 146.091 75.7113 143.732 77.298Z" fill="#263238"/>
<path id="Vector_7" d="M154.59 115.92C151.769 115.92 149.471 115.699 149.471 115.453C149.471 115.207 151.757 114.961 154.59 114.924C157.424 114.887 159.71 115.096 159.722 115.391C159.734 115.686 157.448 115.92 154.59 115.92Z" fill="#263238"/>
<path id="Vector_8" d="M89.5344 121.258C88.6517 121.264 87.7935 120.965 87.1024 120.41L57.3226 97.0395C56.4969 96.3871 55.9614 95.4296 55.8337 94.3778C55.706 93.3259 55.9966 92.2658 56.6416 91.4307C57.2866 90.5956 58.2332 90.0539 59.273 89.9247C60.3129 89.7955 61.3609 90.0895 62.1866 90.7419L89.352 112.046L126.866 77.1996C127.632 76.4803 128.649 76.0982 129.693 76.1374C130.737 76.1766 131.724 76.6339 132.435 77.4087C133.146 78.1835 133.524 79.2122 133.485 80.2687C133.446 81.3252 132.994 82.3228 132.228 83.0421L92.2582 120.188C91.5181 120.883 90.5439 121.265 89.5344 121.258Z" fill="#5ED8FF"/>
<path id="Vector_9" d="M109.732 0.213898H75.5869C75.0563 0.213898 74.6263 0.648944 74.6263 1.1856V13.6947C74.6263 14.2314 75.0563 14.6664 75.5869 14.6664H109.732C110.263 14.6664 110.693 14.2314 110.693 13.6947V1.1856C110.693 0.648944 110.263 0.213898 109.732 0.213898Z" fill="#5ED8FF"/>
<path id="Vector_10" d="M101.974 7.4463H83.3328V24.5433H101.974V7.4463Z" fill="#5ED8FF"/>
<path id="Vector_11" d="M15.7115 44.4445L1.7086 61.9857C1.16434 62.6675 1.26953 63.6665 1.94356 64.217L11.5179 72.037C12.1919 72.5876 13.1795 72.4812 13.7238 71.7994L27.7267 54.2581C28.2709 53.5763 28.1657 52.5773 27.4917 52.0268L17.9174 44.2068C17.2434 43.6563 16.2558 43.7627 15.7115 44.4445Z" fill="#5ED8FF"/>
<path id="Vector_12" d="M109.732 14.6664C109.732 14.8755 102.084 15.0354 92.7082 15.0354C83.3328 15.0354 75.6842 14.8755 75.6842 14.6664C75.6842 14.4573 83.3207 14.2974 92.7082 14.2974C102.096 14.2974 109.732 14.4696 109.732 14.6664Z" fill="#263238"/>
<path id="Vector_13" d="M15.3949 68.7864C15.2003 69.0078 12.6224 67.0152 9.43648 64.5921C6.25056 62.169 3.66048 60.201 3.81856 59.955C3.97664 59.709 6.83424 61.308 10.0566 63.7557C13.279 66.2034 15.5773 68.5773 15.3949 68.7864Z" fill="#263238"/>
<path id="Vector_14" d="M18.3619 64.3707C18.1674 64.5921 15.5895 62.5995 12.4035 60.1764C9.21762 57.7533 6.61538 55.7853 6.77346 55.5393C6.93154 55.2933 9.8013 56.8923 13.0237 59.3523C16.2461 61.8123 18.5443 64.1616 18.3619 64.3707Z" fill="#263238"/>
<path id="Vector_15" d="M21.9978 60.6684C21.8154 60.8898 19.2375 58.8972 16.0515 56.4741C12.8656 54.051 10.312 52.083 10.4215 51.837C10.5309 51.591 13.4493 53.19 16.6595 55.65C19.8698 58.11 22.1923 60.4593 21.9978 60.6684Z" fill="#263238"/>
<path id="Vector_16" d="M25.5242 56.2527C25.3418 56.4741 22.7517 54.4815 19.5658 52.0584C16.3798 49.6353 13.7898 47.6673 13.96 47.4213C14.1302 47.1753 16.9878 48.7743 20.1981 51.2343C23.4083 53.6943 25.7066 56.0436 25.5242 56.2527Z" fill="#263238"/>
<path id="Vector_17" d="M178.372 49.9886L163.299 33.3793C162.713 32.7338 161.721 32.6908 161.083 33.2834L152.017 41.7009C151.379 42.2935 151.336 43.2972 151.922 43.9428L166.995 60.5521C167.581 61.1976 168.573 61.2406 169.211 60.648L178.277 52.2305C178.915 51.6379 178.958 50.6342 178.372 49.9886Z" fill="#5ED8FF"/>
<path id="Vector_18" d="M154.615 46.0806C154.432 45.8592 156.755 43.6206 159.6 40.7424C162.446 37.8642 164.744 35.6133 164.963 35.8224C165.182 36.0315 163.2 38.6514 160.318 41.505C157.436 44.3586 154.785 46.2897 154.615 46.0806Z" fill="#263238"/>
<path id="Vector_19" d="M158.494 49.6968C158.299 49.4754 160.634 47.2368 163.467 44.3586C166.3 41.4804 168.623 39.2295 168.842 39.4386C169.061 39.6477 167.067 42.2676 164.197 45.1212C161.327 47.9748 158.664 49.9059 158.494 49.6968Z" fill="#263238"/>
<path id="Vector_20" d="M161.57 53.8911C161.376 53.6697 163.71 51.4311 166.544 48.5529C169.377 45.6747 171.7 43.4238 171.918 43.6329C172.137 43.842 170.143 46.4496 167.261 49.3032C164.379 52.1568 161.74 54.1002 161.57 53.8911Z" fill="#263238"/>
<path id="Vector_21" d="M165.364 58.11C165.17 57.8886 167.504 55.65 170.338 52.7718C173.171 49.8936 175.493 47.6427 175.712 47.8518C175.931 48.0609 173.937 50.6808 171.055 53.5344C168.173 56.388 165.534 58.2822 165.364 58.11Z" fill="#263238"/>
<path id="Vector_22" d="M79.4173 14.6541C79.1376 14.6541 78.9066 11.4561 78.9066 7.5324C78.9066 3.6087 79.1376 0.398407 79.4173 0.398407C79.697 0.398407 79.9402 3.5964 79.9402 7.5324C79.9402 11.4684 79.7091 14.6541 79.4173 14.6541Z" fill="#263238"/>
<path id="Vector_23" d="M86.1053 14.6541C85.8256 14.6541 85.5946 11.4561 85.5946 7.5324C85.5946 3.6087 85.8256 0.398407 86.1053 0.398407C86.385 0.398407 86.616 3.5964 86.616 7.5324C86.616 11.4684 86.385 14.6541 86.1053 14.6541Z" fill="#263238"/>
<path id="Vector_24" d="M92.7811 14.6541C92.5014 14.6541 92.2704 11.4561 92.2704 7.5324C92.2704 3.6087 92.5014 0.398407 92.7811 0.398407C93.0608 0.398407 93.2918 3.5964 93.2918 7.5324C93.2918 11.4684 93.0729 14.6541 92.7811 14.6541Z" fill="#263238"/>
<path id="Vector_25" d="M99.4691 14.6541C99.1773 14.6541 98.9584 11.4561 98.9584 7.5324C98.9584 3.6087 99.1773 0.398407 99.4691 0.398407C99.761 0.398407 99.9798 3.5964 99.9798 7.5324C99.9798 11.4684 99.7488 14.6541 99.4691 14.6541Z" fill="#263238"/>
<path id="Vector_26" d="M106.145 14.6541C105.865 14.6541 105.634 11.4561 105.634 7.5324C105.634 3.6087 105.865 0.398407 106.145 0.398407C106.425 0.398407 106.656 3.5964 106.656 7.5324C106.656 11.4684 106.376 14.6541 106.145 14.6541Z" fill="#263238"/>
<path id="Vector_27" d="M96.7622 122.288C100.248 118.762 100.248 113.046 96.7622 109.52C93.2766 105.994 87.6253 105.994 84.1397 109.52C80.6541 113.046 80.6541 118.762 84.1397 122.288C87.6253 125.813 93.2766 125.814 96.7622 122.288Z" fill="#5ED8FF"/>
<path id="Vector_28" d="M99.3719 115.92C99.2867 115.92 99.2989 115.121 98.9219 113.755C98.3811 111.85 97.2307 110.18 95.6509 109.007C94.3845 108.056 92.8818 107.48 91.3103 107.342C89.7389 107.204 88.1605 107.511 86.7514 108.228C85.3423 108.945 84.1578 110.044 83.3302 111.402C82.5026 112.76 82.0643 114.325 82.0643 115.92C82.0643 117.515 82.5026 119.08 83.3302 120.438C84.1578 121.796 85.3423 122.895 86.7514 123.612C88.1605 124.329 89.7389 124.636 91.3103 124.498C92.8818 124.36 94.3845 123.784 95.6509 122.833C97.228 121.657 98.3778 119.988 98.9219 118.085C99.2989 116.719 99.2867 115.92 99.3719 115.92C99.457 115.92 99.3719 116.117 99.3719 116.498C99.3911 117.061 99.3338 117.624 99.2016 118.171C98.7651 120.224 97.6288 122.057 95.9914 123.349C94.7679 124.321 93.3213 124.963 91.7862 125.217C90.2511 125.471 88.6774 125.328 87.2118 124.801C85.3974 124.15 83.8268 122.947 82.716 121.357C81.6051 119.767 81.0087 117.867 81.0087 115.92C81.0087 113.973 81.6051 112.074 82.716 110.483C83.8268 108.893 85.3974 107.69 87.2118 107.039C88.677 106.514 90.2493 106.371 91.7837 106.622C93.3182 106.874 94.7652 107.512 95.9914 108.479C97.628 109.776 98.7638 111.613 99.2016 113.669C99.3338 114.216 99.3911 114.779 99.3719 115.342C99.4327 115.699 99.4083 115.92 99.3719 115.92Z" fill="#263238"/>
</g>
</svg>
